<svg width="87" height="90" viewBox="0 0 87 90" fill="none" xmlns="http://www.w3.org/2000/svg">
<path d="M64.2194 5.29914C81.6514 14.789 81.8854 34.2122 86.2294 47.4051C92.8054 67.3754 55.4664 103.557 38.3444 84.7358C21.2224 65.9143 1.03936 81.4485 0.0163632 46.0394C-0.843637 16.269 32.3454 -12.0533 64.2194 5.29914Z" fill="#0F121B"/>
<path d="M37.8407 19.9962C38.1447 19.3914 38.7887 18.8285 39.7757 18.3093C40.7617 17.791 42.3297 17.5991 44.4757 17.7324C46.4007 17.8477 47.8337 18.2078 48.7777 18.8135C49.7187 19.4203 50.5027 20.2438 51.1297 21.2912C52.0827 24.2363 52.9797 26.9158 53.8147 29.3278C54.6507 31.7408 55.5747 34.4224 56.5857 37.3724C57.5947 40.3235 58.6127 43.3164 59.6447 46.35C60.6727 49.3847 61.6377 52.2204 62.5387 54.8592C63.4357 57.4969 64.1927 59.71 64.8087 61.4974C65.4237 63.2857 65.8227 64.4077 66.0027 64.8632C66.4037 65.9444 66.6127 66.7063 66.6297 67.1469C66.6447 67.5895 66.6067 67.875 66.5117 68.0033C66.4177 68.1316 66.3677 68.2241 66.3627 68.2788C65.9107 69.0089 65.0947 69.6116 63.9197 70.086C62.7427 70.5605 61.3567 70.7534 59.7607 70.6679C57.5607 70.5287 55.9897 70.1567 55.0467 69.5509C54.1047 68.9442 53.5057 68.3683 53.2507 67.8252C52.9937 67.2792 52.8927 67.0365 52.9427 67.0962C52.0127 64.4832 51.2427 62.2553 50.6317 60.4132C50.0207 58.5711 49.4527 56.8842 48.9247 55.3515C47.4447 55.2212 46.2077 55.1118 45.2197 55.0253C44.2317 54.9377 42.9967 54.8293 41.5147 54.698C41.2257 55.444 40.9227 56.367 40.6047 57.4661C40.2847 58.5672 39.8827 59.9756 39.3977 61.6923C38.7877 62.9595 37.9307 63.8735 36.8297 64.4375C35.7287 65.0015 33.9707 65.1765 31.5557 64.9637C29.7437 64.8035 28.4047 64.4793 27.5347 63.9899C26.6647 63.5005 26.1027 62.9704 25.8487 62.3975C25.5967 61.8256 25.5067 61.1293 25.5787 60.3098C25.7357 59.7746 26.0707 58.6616 26.5807 56.9728C27.0927 55.2839 27.7157 53.2478 28.4537 50.8637C29.1907 48.4806 29.9697 45.9492 30.7897 43.2696C31.6087 40.5911 32.4127 37.9384 33.1997 35.3106C33.9857 32.6847 34.6977 30.2837 35.3347 28.1114C35.9717 25.9391 36.6827 23.5391 37.4697 20.9122C37.4137 20.9072 37.5387 20.6019 37.8407 19.9962ZM44.9627 34.6143C44.8877 34.8282 44.7927 35.2588 44.6807 35.9103L44.1477 38.1741C43.9237 39.4204 43.6697 40.7463 43.3777 42.1507C43.0877 43.5561 42.8027 44.88 42.5257 46.1203C42.3567 46.7648 42.2387 47.1676 42.1697 47.3268L43.2407 47.4213C43.8987 47.4789 44.6147 47.5148 45.3877 47.5277C46.1597 47.5416 46.8497 47.5734 47.4537 47.6271C47.2717 47.1716 47.1437 46.5957 47.0667 45.9015C46.9907 45.2072 46.8967 44.5527 46.7857 43.9361C46.5687 42.652 46.3147 41.3092 46.0247 39.9078C45.7347 38.5073 45.4787 37.1914 45.2547 35.9611C45.1507 35.2907 45.0527 34.8421 44.9627 34.6143Z" fill="white"/>
<path d="M1.00195 35.9796C10.414 35.1968 17.9749 24.0042 18.8309 14.392C19.0119 12.355 19.0579 10.4453 18.9549 8.64697C10.0079 15.313 3.40995 25.1927 1.00195 35.9796Z" fill="#4CBBF8"/>
<path d="M86.5195 58.7325C77.1075 59.5153 67.5544 68.7186 66.6984 78.3308C66.5174 80.3678 66.5954 82.2974 66.6984 84.0957C75.6454 77.4297 84.1115 69.5193 86.5195 58.7325Z" fill="#D949F2"/>
</svg>
