<svg width="111" height="106" viewBox="0 0 111 106" fill="none" xmlns="http://www.w3.org/2000/svg">
<path d="M87.6998 15.2784C105.132 24.8194 105.366 44.3474 109.71 57.6114C116.286 77.6894 78.9468 114.066 61.8248 95.1434C44.7028 76.2204 24.5198 91.8384 23.4968 56.2384C22.6368 26.3074 55.8258 -2.1676 87.6998 15.2784Z" fill="#00175A"/>
<path d="M61.3212 30.0545C61.6252 29.4465 62.2692 28.8805 63.2562 28.3585C64.2422 27.8375 65.8102 27.6445 67.9562 27.7785C69.8812 27.8945 71.3142 28.2565 72.2582 28.8655C73.1992 29.4755 73.9832 30.3035 74.6102 31.3565C75.5632 34.3175 76.4602 37.0115 77.2952 39.4365C78.1312 41.8625 79.0552 44.5585 80.0662 47.5245C81.0752 50.4915 82.0932 53.5005 83.1252 56.5505C84.1532 59.6015 85.1182 62.4525 86.0192 65.1055C86.9162 67.7575 87.6732 69.9825 88.2892 71.7795C88.9042 73.5775 89.3032 74.7055 89.4832 75.1635C89.8842 76.2505 90.0932 77.0165 90.1102 77.4595C90.1252 77.9045 90.0872 78.1915 89.9922 78.3205C89.8982 78.4495 89.8482 78.5425 89.8432 78.5975C89.3912 79.3315 88.5752 79.9375 87.4002 80.4145C86.2232 80.8915 84.8372 81.0855 83.2412 80.9995C81.0412 80.8595 79.4702 80.4855 78.5272 79.8765C77.5852 79.2665 76.9862 78.6875 76.7312 78.1415C76.4742 77.5925 76.3732 77.3485 76.4232 77.4085C75.4932 74.7815 74.7232 72.5415 74.1122 70.6895C73.5012 68.8375 72.9332 67.1415 72.4052 65.6005C70.9252 65.4695 69.6882 65.3595 68.7002 65.2725C67.7122 65.1845 66.4772 65.0755 64.9952 64.9435C64.7062 65.6935 64.4032 66.6215 64.0852 67.7265C63.7652 68.8335 63.3632 70.2495 62.8782 71.9755C62.2682 73.2495 61.4112 74.1685 60.3102 74.7355C59.2092 75.3025 57.4512 75.4785 55.0362 75.2645C53.2242 75.1035 51.8852 74.7775 51.0152 74.2855C50.1452 73.7935 49.5832 73.2605 49.3292 72.6845C49.0772 72.1095 48.9872 71.4095 49.0592 70.5855C49.2162 70.0475 49.5512 68.9285 50.0612 67.2305C50.5732 65.5325 51.1962 63.4855 51.9342 61.0885C52.6712 58.6925 53.4502 56.1475 54.2702 53.4535C55.0892 50.7605 55.8932 48.0935 56.6802 45.4515C57.4662 42.8115 58.1782 40.3975 58.8152 38.2135C59.4522 36.0295 60.1632 33.6165 60.9502 30.9755C60.8942 30.9705 61.0192 30.6635 61.3212 30.0545ZM68.4432 44.7515C68.3682 44.9665 68.2732 45.3995 68.1612 46.0545L67.6282 48.3305C67.4042 49.5835 67.1502 50.9165 66.8582 52.3285C66.5682 53.7415 66.2832 55.0725 66.0062 56.3195C65.8372 56.9675 65.7192 57.3725 65.6502 57.5325L66.7212 57.6275C67.3792 57.6855 68.0952 57.7215 68.8682 57.7345C69.6402 57.7485 70.3302 57.7805 70.9342 57.8345C70.7522 57.3765 70.6242 56.7975 70.5472 56.0995C70.4712 55.4015 70.3772 54.7435 70.2662 54.1235C70.0492 52.8325 69.7952 51.4825 69.5052 50.0735C69.2152 48.6655 68.9592 47.3425 68.7352 46.1055C68.6312 45.4315 68.5332 44.9805 68.4432 44.7515Z" fill="url(#paint0_linear_730_475)"/>
<path d="M42.311 24.4206C41.39 34.8106 32.72 47.0456 22.33 46.1256C11.94 45.2046 -0.874054 32.8716 0.0469459 22.4816C0.967946 12.0916 17.896 -5.7324 31.674 1.8086C40.824 6.8176 43.232 14.0306 42.311 24.4206Z" fill="#06B6D4"/>
<path d="M46.621 87.7517C51.067 89.5627 55.37 94.8007 53.689 98.9257C52.008 103.052 45.023 106.594 40.577 104.783C36.131 102.972 30.391 93.5827 35.393 88.9847C38.715 85.9307 42.175 85.9407 46.621 87.7517Z" fill="#D949F2"/>
<path d="M24.4824 46.1245C33.8944 45.3375 41.4554 34.0845 42.3114 24.4205C42.4924 22.3725 42.5384 20.4525 42.4354 18.6445C33.4884 25.3465 26.8904 35.2795 24.4824 46.1245Z" fill="white"/>
<defs>
<linearGradient id="paint0_linear_730_475" x1="49.0352" y1="54.3783" x2="90.1133" y2="54.3783" gradientUnits="userSpaceOnUse">
<stop stop-color="#6366F1"/>
<stop offset="1" stop-color="#06B6D4"/>
</linearGradient>
</defs>
</svg>
